<svg width="239" height="56" viewBox="0 0 239 56" fill="none" xmlns="http://www.w3.org/2000/svg">
<g clip-path="url(#clip0_7604_18558)">
<path d="M50.1222 16.4763L51.0197 16.1175L50.571 15.2295L49.6735 15.5884L50.1222 16.4763ZM51.8194 17.6979L51.4077 16.8858L50.5103 17.2446L50.959 18.1326L50.2201 18.5049L49.7444 17.5648L48.1991 18.1932L47.8111 17.4266L49.3564 16.7981L48.9076 15.9102L47.3623 16.5387L46.9709 15.7636L48.5162 15.1352L48.1316 14.3753L48.8705 14.0029L49.2821 14.8151L50.1796 14.4562L49.7309 13.5682L50.4698 13.1959L50.9455 14.136L52.4908 13.5076L52.8822 14.2826L51.3369 14.9111L51.7856 15.799L53.3309 15.1706L53.7189 15.9389L52.1736 16.5673L52.5583 17.3272L51.8194 17.6995V17.6979Z" fill="#78C887"/>
<path d="M12.7824 47.9901L12.1818 48.745L13.0135 49.2925L13.6141 48.5377L12.7824 47.9885V47.9901ZM10.7023 47.7694L11.4632 48.2715L12.0637 47.5167L11.232 46.9691L11.6875 46.28L12.5681 46.8613L13.5972 45.5504L14.3159 46.0239L13.2868 47.3347L14.1185 47.8823L15.1475 46.5715L15.8729 47.05L14.8439 48.3608L15.5558 48.8309L15.1003 49.52L14.3395 49.0179L13.7389 49.7727L14.5706 50.3203L14.1151 51.0094L13.2345 50.4281L12.2054 51.739L11.48 51.2605L12.5091 49.9496L11.6774 49.4021L10.6483 50.7129L9.92969 50.2394L10.9588 48.9286L10.2468 48.4585L10.7023 47.7694Z" fill="#78C887"/>
<path fill-rule="evenodd" clip-rule="evenodd" d="M24.1038 19.8579L27.2146 21.6843L30.3237 19.8579V24.0852H34.5227L32.7277 27.1904L34.5227 30.2973H30.3237V34.4792L27.2146 32.6983L24.1038 34.4792V30.2973H19.8948L21.6999 27.1904L19.8948 24.0852H24.1038V19.8579Z" fill="#78C887"/>
<path d="M39.0371 46.6456L40.7157 49.2656L39.7305 49.894L40.3749 50.8999L43.5093 48.8966L42.8649 47.8907L41.8729 48.5242L40.1944 45.9043L39.0371 46.6439V46.6456ZM41.6317 45.0551L44.7476 48.0289L45.6973 47.0365L42.5815 44.0627L41.6317 45.0551ZM45.4696 43.6769C45.2908 43.8639 45.0698 43.8757 44.9213 43.7325C44.7729 43.5909 44.7746 43.3702 44.9534 43.1832L45.7665 42.3323L46.2827 42.8243L45.4696 43.6752V43.6769ZM49.0325 43.5522L45.9166 40.5784L43.9867 42.5952C43.2968 43.3163 43.3912 44.1975 43.9597 44.7383C44.5333 45.2859 45.3819 45.3685 46.1022 44.6137L47.0824 43.5893L48.0827 44.5446L49.0325 43.5522ZM45.9757 40.2633L48.8419 39.9887L49.7512 42.3424L50.5795 40.9053L49.7411 38.9121L51.234 39.7697L51.919 38.5801L48.184 36.4319L47.499 37.6214L48.3965 38.137L48.6175 38.7368L46.8226 38.7958L45.9774 40.2633H45.9757ZM49.6618 31.1802C49.3159 32.3983 49.8963 33.1363 51.2037 33.6906L52.1804 34.1051L51.8734 35.1851L48.8773 34.3376L48.5028 35.6586L52.6494 36.8312L53.6532 33.2896L51.7384 32.4523C50.8713 32.0765 50.6537 31.7935 50.7414 31.4851L49.6601 31.1785L49.6618 31.1802ZM49.93 30.7253L54.2386 30.8281L54.2706 29.4566L49.962 29.3538L49.93 30.7253ZM51.8363 27.1247C51.8295 27.3825 51.6743 27.5392 51.4702 27.5358C51.2644 27.5308 51.1176 27.3673 51.1227 27.1079L51.1514 25.9318L51.865 25.9487L51.8363 27.1247ZM54.3853 24.6362L50.0768 24.5334L50.011 27.3218C49.9874 28.3193 50.652 28.9056 51.4365 28.9241C52.231 28.9427 52.9126 28.4339 52.9362 27.3909L52.9699 25.9739L54.3533 26.006L54.3853 24.6345V24.6362ZM53.0476 18.5706L51.4567 18.9379C50.5694 19.1435 50.1223 19.7045 50.3889 20.8503C50.5171 21.4063 50.76 21.8174 50.9759 22.0415L49.5066 22.3818L49.8153 23.7095L54.0142 22.7373L53.7055 21.4096L52.037 21.7955C51.9038 21.6523 51.7722 21.445 51.6862 21.071C51.5748 20.5942 51.6895 20.2926 52.2024 20.1746L53.358 19.9067L53.0476 18.5689V18.5706Z" fill="#78C887"/>
<path d="M42.9662 10.6735L45.7919 10.1984L44.0745 11.8344L45.0226 12.8285L48.1419 9.85806L47.187 8.85894L44.4946 9.30543L46.1293 7.75029L45.1812 6.75622L42.062 9.72664L42.9679 10.6752L42.9662 10.6735ZM41.873 9.50424L41.7347 6.63154L44.1319 5.83628L42.7351 4.94161L40.7006 5.68296L41.6301 4.23565L40.4728 3.49431L38.1465 7.11847L39.3037 7.85981L39.8621 6.98873L40.4728 6.79666L40.4458 8.58936L41.873 9.50256V9.50424ZM36.0951 6.29793C36.9588 6.63828 37.6522 6.46137 38.0301 6.20695L37.5071 5.09999C37.2608 5.26174 36.9386 5.32576 36.5978 5.19266C36.0664 4.98374 35.8066 4.44963 36.0462 3.84476C36.2857 3.2399 36.8357 3.03434 37.3671 3.24327C37.7078 3.37806 37.9052 3.62742 37.9727 3.92227L39.108 3.47746C39.0085 3.02592 38.6188 2.43284 37.7551 2.0925C36.5016 1.59883 35.2297 2.07565 34.7354 3.32751C34.2377 4.58779 34.8416 5.80258 36.0951 6.29625V6.29793ZM32.6249 5.04102L33.325 2.00994L34.4638 2.27278L34.732 1.10854L31.1067 0.272841L30.8384 1.43709L31.9856 1.70161L31.2855 4.73269L32.6249 5.04102ZM27.6315 3.29381C27.3362 3.28707 26.9853 3.10848 26.82 2.88102L26.8538 1.57188C27.0292 1.34442 27.3902 1.19278 27.6838 1.2012C28.2185 1.21468 28.62 1.62579 28.6032 2.26773C28.5863 2.91809 28.1662 3.30898 27.6315 3.2955V3.29381ZM28.0549 4.51703C29.1346 4.54398 29.9663 3.76221 30.0034 2.30142C30.0405 0.849066 29.2493 0.0268502 28.1696 -0.000107685C27.6787 -0.0119018 27.2283 0.171749 26.8791 0.572748L26.8909 0.0740266L25.5177 0.0386443L25.3675 5.98118L26.7407 6.01656L26.7947 3.87004C27.1405 4.30642 27.5724 4.50523 28.0549 4.51703ZM21.1787 6.80845C21.3272 6.82698 21.6477 6.79666 21.7709 6.77475C22.5756 6.613 23.1812 6.29625 23.3634 5.34093L24.4127 0.156585L22.9804 0.412685L22.4946 3.27022L21.0573 0.756399L19.6334 1.01081L22.0897 5.00901L22.034 5.255C21.9952 5.44371 21.813 5.53806 21.506 5.59366C21.3997 5.61219 21.2648 5.60882 21.1585 5.57344L21.1804 6.81013L21.1787 6.80845ZM20.1598 5.35272L18.3834 1.43035L16.7335 2.17506L16.8718 4.6653L15.0904 2.9164L13.4405 3.66111L15.2169 7.58349L16.4687 7.01737L15.4059 4.67035L17.3712 6.60963L18.0139 6.31984L17.8537 3.56508L18.9165 5.9121L20.1598 5.35104V5.35272ZM10.5929 7.28864L11.4769 6.59447L12.6628 8.10075L11.3571 9.12514C11.3891 8.80502 11.298 8.45794 11.0686 8.08221L10.5912 7.28864H10.5929ZM11.519 11.9119L12.5987 11.0644L11.9205 10.2018L13.7728 8.74773L14.451 9.61039L15.5307 8.7629L14.1136 6.96177L13.7425 7.25326L11.8176 4.80682L8.91938 7.0814L9.97375 8.88252C10.4545 9.69463 10.3685 9.9322 10.1323 10.1512L11.5157 11.9102L11.519 11.9119ZM9.55031 15.4653C9.67346 15.3811 9.89277 15.1452 9.97037 15.0475C10.463 14.392 10.7042 13.7535 10.2049 12.9178L7.53436 8.35011L6.6352 9.49245L8.17542 11.949L5.42731 11.0274L4.53489 12.163L9.03241 13.5159L9.15387 13.7366C9.25003 13.9034 9.17749 14.0955 8.98517 14.3415C8.91938 14.4257 8.81479 14.5134 8.71188 14.5588L9.552 15.467L9.55031 15.4653ZM5.87605 16.3785C5.60276 16.9092 5.03256 16.9884 4.51634 16.7239C4.00855 16.4644 3.73695 15.9556 4.01024 15.4232C4.28691 14.884 4.86217 14.7981 5.36995 15.0576C5.88617 15.3221 6.15272 15.8377 5.87605 16.3785ZM6.95572 16.9311C7.63052 15.6136 7.09237 14.3583 6.0127 13.8057C4.93302 13.2531 3.60536 13.5547 2.92888 14.8722C2.26252 16.173 2.78886 17.4332 3.86853 17.9859C4.94821 18.5385 6.28936 18.2319 6.95572 16.9311ZM5.58083 19.4804L1.38191 18.5116L0.416956 22.6883L4.61587 23.6571L4.92459 22.3194L1.8897 21.6201L2.23722 20.1172L5.27211 20.8165L5.58083 19.4787V19.4804ZM3.31183 26.5197C3.29665 27.1162 2.81585 27.4346 2.23553 27.4195C1.66533 27.4043 1.19972 27.0639 1.2149 26.4658C1.23008 25.8593 1.71088 25.5341 2.28277 25.5476C2.86309 25.5627 3.32701 25.9132 3.31183 26.5181V26.5197ZM4.52477 26.5501C4.56189 25.0707 3.53114 24.171 2.31819 24.1407C1.10525 24.1104 0.0390702 24.9562 0.0019564 26.4355C-0.0351573 27.8963 0.987158 28.8044 2.2001 28.8364C3.41305 28.8668 4.48766 28.0108 4.52477 26.5501ZM4.59225 30.2264L1.52699 30.774L1.32118 29.625L0.143663 29.8356L0.798215 33.4934L1.97573 33.2828L1.76823 32.1253L4.83349 31.5777L4.59225 30.2264ZM5.71916 34.4639C5.42225 33.5861 4.83855 33.1716 4.39994 33.0469L3.89215 34.1589C4.17388 34.2415 4.43199 34.447 4.55008 34.7924C4.73227 35.3333 4.49272 35.8741 3.87528 36.0831C3.25784 36.292 2.74669 36.0039 2.56281 35.463C2.44472 35.1176 2.50882 34.8042 2.69102 34.5633L1.61978 33.9854C1.33974 34.3527 1.13561 35.0334 1.43421 35.9112C1.86608 37.1866 3.05203 37.8488 4.3274 37.4175C5.61288 36.9828 6.15103 35.7377 5.71916 34.4639ZM8.19566 39.7426L5.33115 39.6718L7.33024 38.393L6.58796 37.2372L2.95925 39.5606L3.70658 40.7232L6.43613 40.7973L4.53489 42.0138L5.27717 43.1696L8.90588 40.8462L8.19735 39.7426H8.19566ZM9.23822 47.5806L10.4208 46.4551C11.0804 45.8283 11.1783 45.1173 10.3651 44.2665C9.97037 43.8537 9.55369 43.6228 9.2534 43.5403L10.3449 42.5007L9.40355 41.5134L6.2843 44.4838L7.22564 45.4711L8.46558 44.2901C8.65283 44.3457 8.87214 44.4569 9.137 44.7349C9.47609 45.0904 9.53176 45.4054 9.1505 45.7694L8.29182 46.5865L9.23991 47.5806H9.23822Z" fill="#78C887"/>
<path d="M40.3748 14.4494C40.6852 14.4494 40.9754 14.532 41.2284 14.682C41.4882 14.8336 41.7075 15.056 41.8661 15.3273L45.8575 22.1948C46.1561 22.7104 46.3079 23.2798 46.3079 23.8493C46.3079 24.4188 46.1595 24.9731 45.8575 25.482C44.8774 27.1314 44.0508 28.5265 43.0858 30.1844L44.2363 30.8483C44.319 30.887 44.3898 30.9494 44.4388 31.0252C44.4877 31.0993 44.5147 31.1886 44.5147 31.2846C44.5147 31.3706 44.4911 31.4565 44.4489 31.5306C44.4 31.6132 44.3308 31.6772 44.2515 31.7193C44.1705 31.7615 44.0778 31.78 43.985 31.7716L39.9666 31.7682V40.3391C39.9666 40.6492 39.8839 40.9389 39.7354 41.1917C39.5836 41.4511 39.3609 41.6702 39.0893 41.8286L32.2132 45.815C31.6969 46.1132 31.1267 46.2648 30.5565 46.2648C30.0488 46.2648 29.5393 46.1435 29.072 45.8992L29.0517 44.772L29.5106 45.0416C29.6979 45.1511 29.7788 45.168 29.9661 45.2202C30.1685 45.2775 30.3676 45.3028 30.5599 45.3028C30.7657 45.3028 30.9648 45.2758 31.1571 45.2236C31.3595 45.168 31.5535 45.0854 31.7341 44.9809L37.6368 41.5758L28.8999 36.4926L28.8797 35.3637L31.7779 37.052V31.7564H37.2083C37.1577 31.7379 37.1122 31.7109 37.07 31.6755C37.0295 31.6418 36.9924 31.5997 36.9637 31.5509L33.8681 26.2048L33.308 27.1736L35.3948 30.7859H30.8045V35.3182L27.908 33.6603C27.9164 34.2635 27.9248 35.047 27.9333 35.822C27.9434 36.7403 27.9518 37.6484 27.9619 38.2347C28.1357 38.078 28.2538 37.9668 28.3938 37.8371L28.5203 37.7192C28.738 37.517 28.9623 37.4749 29.1445 37.5338C29.2272 37.5608 29.2997 37.608 29.3605 37.6703C29.4195 37.7326 29.4651 37.8085 29.492 37.8944C29.5595 38.1084 29.5173 38.3779 29.2947 38.6206C28.8645 39.1126 28.5777 39.4428 28.1745 39.9095L27.9889 40.1235C28.0024 40.6913 28.0159 41.2726 28.0277 41.8606C28.0682 43.7038 28.1104 45.606 28.188 47.3937C28.1947 47.5605 28.2049 47.7104 28.2217 47.8486C28.2386 47.9817 28.2605 48.0996 28.2926 48.2092C28.328 48.258 28.3635 48.3018 28.4006 48.3406C28.6536 48.6051 28.9623 48.6523 29.2525 48.6034C29.5494 48.5529 29.8278 48.4029 30.0133 48.2715C30.0859 48.221 30.1449 48.1721 30.1837 48.135C30.3794 47.948 30.5312 47.8621 30.6409 47.8452C30.7067 47.8351 30.759 47.8503 30.7995 47.8823C30.8383 47.9143 30.8636 47.9615 30.8737 48.0205C30.8939 48.1367 30.8602 48.3018 30.7775 48.472C30.7303 48.5697 30.4891 48.9572 30.0791 49.2639C29.8682 49.4223 29.6135 49.5587 29.3166 49.6278L29.3571 49.6531C29.4009 49.6784 29.4448 49.702 29.4904 49.7222C29.8851 49.9008 30.4638 49.8654 31.0053 49.648C31.4996 49.4492 31.9618 49.0988 32.2267 48.6203C32.3667 48.3659 32.5219 48.2412 32.6535 48.221C32.7193 48.2108 32.78 48.2243 32.8323 48.2614C32.8812 48.2951 32.92 48.349 32.9453 48.4198C33.0111 48.6 32.9875 48.9 32.8087 49.2538C33.0094 49.2858 33.2017 49.338 33.3822 49.4105C33.5796 49.488 33.7618 49.5908 33.9255 49.7154C34.1566 49.8907 34.2713 50.0288 34.305 50.1282C34.3236 50.1838 34.3202 50.2293 34.2966 50.2664C34.2747 50.3035 34.2359 50.327 34.1852 50.3388C34.0891 50.3607 33.9356 50.3388 33.7702 50.2664C32.7142 49.8148 32.0343 50.2495 31.368 50.6758C31.287 50.728 31.206 50.7803 31.1183 50.8325C31.039 50.8814 30.958 50.9252 30.8771 50.9622C30.8281 50.9841 30.7792 51.0044 30.7286 51.0229C31.034 51.1813 31.3646 51.3026 31.702 51.3733C32.0461 51.4458 32.3987 51.4643 32.7412 51.4138C33.1444 51.3548 33.4177 51.375 33.5577 51.4407C33.6269 51.4728 33.6673 51.5182 33.6792 51.5722C33.691 51.6261 33.6724 51.6834 33.6252 51.7423C33.5256 51.8636 33.2861 52.0018 32.8998 52.1197C32.6821 52.1871 32.4544 52.2326 32.2199 52.2613C31.9989 52.2865 31.7729 52.295 31.5434 52.2865C31.5772 52.5527 31.6902 52.8156 31.8859 53.0481C32.0799 53.2789 32.3566 53.4811 32.7176 53.6294C32.9841 53.7389 33.141 53.8619 33.2 53.9697C33.2304 54.0253 33.2372 54.0792 33.2237 54.1281C33.2085 54.177 33.1731 54.2174 33.1191 54.2477C33.0094 54.3084 32.812 54.3286 32.5472 54.2797C31.982 54.1753 31.5164 53.9175 31.1622 53.5502C30.7961 53.1711 30.5515 52.6757 30.4401 52.1181C29.9003 51.9698 29.3858 51.7288 28.9488 51.402C28.5659 51.1139 28.2437 50.7584 28.0193 50.3405C28.0024 50.3927 27.9906 50.4433 27.9822 50.4922C27.9704 50.5764 27.9704 50.6573 27.9822 50.7348C28.0058 50.8881 28.0497 51.0263 28.134 51.1627C28.2201 51.3009 28.3483 51.4374 28.5423 51.5873C28.7785 51.7693 29.0399 51.9782 29.2862 52.2124C29.5342 52.4483 29.767 52.7094 29.9425 52.9959C30.1466 53.3278 30.2579 53.6782 30.2478 54.0439C30.2377 54.4095 30.1061 54.7903 29.8294 55.1862C29.6607 55.4271 29.4853 55.5417 29.347 55.5569C29.2812 55.5653 29.2221 55.5518 29.1732 55.5198C29.126 55.4878 29.0889 55.4389 29.0669 55.3766C29.018 55.2334 29.0467 55.011 29.1985 54.7431C29.3503 54.4735 29.3503 54.2191 29.2525 53.9781C29.1546 53.7389 28.9606 53.5131 28.7211 53.3025C28.3837 53.3851 28.1576 53.5165 28.0193 53.6884C27.8793 53.8619 27.8287 54.0776 27.8439 54.3269C27.8607 54.6066 27.8118 54.8105 27.7325 54.9149C27.6954 54.9655 27.6499 54.9958 27.5992 55.0042C27.5486 55.0127 27.4963 54.9992 27.4457 54.9604C27.3462 54.8863 27.2484 54.7128 27.1809 54.4213C27.1016 54.0792 27.11 53.7271 27.1944 53.4002C27.2753 53.0852 27.4255 52.792 27.6364 52.546C27.4137 52.3961 27.2332 52.2276 27.0898 52.0473C26.9531 51.8737 26.8485 51.6884 26.7709 51.493C26.4251 51.8569 26.0708 52.3523 25.9291 52.9066C25.8195 53.3362 25.838 53.8029 26.0911 54.2713C26.2631 54.4903 26.3391 54.6706 26.3374 54.7919C26.3374 54.8543 26.3171 54.9031 26.2817 54.9385C26.2463 54.9722 26.1957 54.9908 26.1333 54.9891C26.0101 54.9857 25.8313 54.9048 25.6204 54.7262C25.4517 54.5847 25.3134 54.4179 25.2037 54.2326C25.0991 54.0573 25.0182 53.8669 24.9625 53.6664C24.7533 53.8248 24.5525 54.0489 24.4581 54.3522C24.3805 54.6032 24.3771 54.9116 24.5036 55.2822C24.6318 55.5821 24.6656 55.7759 24.6403 55.8821C24.6251 55.9444 24.5913 55.9831 24.5458 55.9983C24.5036 56.0135 24.4513 56.0067 24.3957 55.9815C24.2641 55.9225 24.0954 55.754 23.9638 55.5181C23.5893 54.8442 23.564 54.2679 23.7074 53.7962C23.9233 53.0818 24.5255 52.61 24.8899 52.4028C24.9119 52.2478 24.9439 52.0962 24.9861 51.9479C25.0165 51.8434 25.0502 51.7423 25.089 51.6429C25.0502 51.6665 25.0114 51.6918 24.9726 51.7137C24.8883 51.7642 24.7988 51.8114 24.7094 51.8569C24.5795 51.9226 24.4412 51.9782 24.2995 52.0271C24.1595 52.0742 24.0144 52.1147 23.8676 52.1484C23.7512 52.6993 23.5066 53.1863 23.1422 53.5603C22.7896 53.9226 22.3274 54.177 21.7673 54.2814C21.5008 54.3303 21.3051 54.3101 21.1954 54.2494C21.1398 54.2191 21.1043 54.1786 21.0908 54.1298C21.0757 54.0809 21.0841 54.027 21.1145 53.9714C21.1735 53.8636 21.3304 53.7406 21.5969 53.6311C21.931 53.4946 22.1908 53.2941 22.3831 53.065C22.5923 52.8173 22.7205 52.5376 22.7778 52.2714C22.545 52.2747 22.3207 52.263 22.1165 52.2411C21.8837 52.2158 21.6762 52.1737 21.5075 52.1214C21.1313 52.0052 20.8952 51.8754 20.7939 51.7609C20.7433 51.7019 20.7231 51.6429 20.7349 51.589C20.7467 51.5351 20.7872 51.4879 20.858 51.4525C20.9997 51.3818 21.2781 51.3481 21.6863 51.3835C22.0001 51.4104 22.3207 51.3767 22.6327 51.3026C22.9516 51.2251 23.262 51.1054 23.5488 50.9589C23.5252 50.9488 23.5015 50.937 23.4796 50.9252C23.4273 50.8982 23.375 50.8696 23.321 50.8359C23.235 50.782 23.1523 50.7297 23.0714 50.6792C22.4033 50.2512 21.7251 49.8165 20.6691 50.2698C20.5038 50.3405 20.3519 50.3641 20.2541 50.3422C20.2035 50.3304 20.1647 50.3068 20.1428 50.2698C20.1208 50.2327 20.1158 50.1872 20.1343 50.1316C20.1681 50.0322 20.2828 49.894 20.5139 49.7188C20.6775 49.5941 20.8614 49.493 21.0571 49.4138C21.2376 49.3414 21.4299 49.2892 21.6307 49.2571C21.4502 48.9033 21.4282 48.6051 21.494 48.4231C21.5193 48.3524 21.5581 48.2985 21.6071 48.2648C21.6577 48.2294 21.7184 48.2142 21.7859 48.2243C21.9175 48.2462 22.071 48.3692 22.2127 48.6236C22.4775 49.1021 22.9398 49.4526 23.4341 49.6514C23.9756 49.8688 24.5542 49.9041 24.949 49.7255C24.9878 49.7087 25.0249 49.6885 25.062 49.6683C25.0823 49.6565 25.1025 49.6447 25.1227 49.6312C24.8191 49.5604 24.561 49.4189 24.3484 49.2588C23.9452 48.9522 23.709 48.5731 23.6618 48.4754C23.5791 48.3052 23.5454 48.1384 23.5657 48.0238C23.5758 47.9649 23.6011 47.916 23.6399 47.8857C23.6804 47.8536 23.7327 47.8385 23.7985 47.8486C23.9081 47.8654 24.0599 47.9514 24.2556 48.1384C24.3079 48.1873 24.3923 48.2563 24.5019 48.3254C24.6976 48.4501 24.9642 48.5798 25.2442 48.6135C25.5175 48.6472 25.8026 48.5883 26.0388 48.3423C26.0877 48.2917 26.1349 48.2311 26.1805 48.162C26.2075 48.0609 26.226 47.9497 26.2395 47.8267C26.2547 47.7003 26.2631 47.5622 26.2699 47.4088C26.3222 46.2008 26.3458 44.8714 26.3694 43.5033L26.3812 42.826C26.2345 42.6322 26.0894 42.4385 25.9426 42.2464C25.8212 42.0847 25.698 41.9212 25.504 41.6651C25.3876 41.5101 25.3201 41.3248 25.3218 41.1512C25.3218 40.9878 25.3842 40.8362 25.5209 40.7317C25.6676 40.6171 25.8262 40.6053 25.9797 40.6508C26.14 40.698 26.2969 40.8109 26.4285 40.9322L26.5111 36.5128C26.1467 36.223 25.8448 35.9079 25.5934 35.5693C25.3505 35.2407 25.1565 34.892 25.003 34.5247L23.6163 35.3199V30.7876H19.0142L19.8931 29.2695L19.0732 28.7961L17.3407 31.7615H22.6429V37.1817C22.6614 37.1328 22.6884 37.0873 22.7238 37.0452C22.7576 37.0048 22.7998 36.9677 22.8487 36.9391L24.6234 35.9147C24.701 36.041 24.7837 36.1657 24.8731 36.287C24.976 36.4269 25.0873 36.5617 25.2105 36.6931L23.596 37.6198L23.6028 42.1756C23.6078 42.1672 23.6112 42.1571 23.6163 42.1504C23.6821 42.0341 23.79 41.9566 23.9098 41.9246C24.0296 41.8926 24.1612 41.9044 24.2776 41.9718C24.3046 41.9869 24.3299 42.0021 24.3552 42.019C24.7145 42.2296 25.0671 42.4368 25.4163 42.6407L25.396 43.7392C25.0131 43.5151 24.6217 43.2877 24.2151 43.0518L23.5505 44.2009C23.5117 44.2834 23.4493 44.3542 23.3733 44.403C23.2991 44.4519 23.2097 44.4789 23.1135 44.4789C23.0275 44.4789 22.9415 44.4553 22.8672 44.4132C22.7846 44.3643 22.7205 44.2952 22.6783 44.216C22.6361 44.1351 22.6176 44.0425 22.626 43.9498L22.6294 39.9365H14.0494C13.7389 39.9365 13.4471 39.8539 13.1957 39.7056C12.9359 39.554 12.7166 39.3316 12.5581 39.0603L8.56664 32.1928C8.26804 31.6772 8.11621 31.1077 8.11621 30.5383C8.11621 29.9688 8.26467 29.4144 8.56664 28.9056C9.54678 27.2561 10.3734 25.8611 11.3384 24.2031L10.1878 23.5393C10.1052 23.5006 10.0343 23.4382 9.98539 23.3624C9.93647 23.2883 9.90948 23.199 9.90948 23.1029C9.90948 23.017 9.9331 22.9311 9.97527 22.8569C10.0242 22.7744 10.0934 22.7103 10.1727 22.6682C10.2536 22.6261 10.3464 22.6076 10.4392 22.616L14.4627 22.6194V14.0451C14.4627 13.7351 14.5453 13.4453 14.6938 13.1925C14.8456 12.9331 15.0683 12.714 15.3399 12.5556L22.2161 8.56925C22.7323 8.27102 23.3025 8.11938 23.8727 8.11938C24.4429 8.11938 24.9979 8.26765 25.5074 8.56925C27.1589 9.54815 28.5558 10.3737 30.2158 11.3375L30.8804 10.1884C30.9192 10.1058 30.9817 10.0351 31.0576 9.98622C31.1318 9.93736 31.2212 9.9104 31.3174 9.9104C31.4979 9.9104 31.6683 10.0115 31.7509 10.1732C31.7931 10.2541 31.8117 10.3468 31.8032 10.4394L31.7998 14.4562H40.3765L40.3748 14.4494ZM34.5058 25.1045L35.3526 25.5932L37.0852 22.6278H31.783V17.216C31.7644 17.2615 31.7391 17.3036 31.7071 17.3407C31.6716 17.3811 31.6311 17.4182 31.5822 17.4468L26.2412 20.5318L27.2095 21.0929L30.8096 19.0171V23.605H35.3746L34.5075 25.1079L34.5058 25.1045ZM25.1362 19.8916L25.6187 19.0592L22.6496 17.3289V22.6244H17.2057H17.2108C17.2614 22.6463 17.3103 22.6733 17.3525 22.7087C17.393 22.7424 17.4301 22.7845 17.4588 22.8333L20.5375 28.1491L21.106 27.1668L19.0445 23.6H23.6196V19.0121L25.1362 19.8899V19.8916ZM26.5584 33.63L26.0017 33.9451C26.0523 34.0883 26.1349 34.2382 26.2277 34.3781C26.3323 34.5364 26.4487 34.6797 26.5466 34.7841L26.5584 33.63ZM24.588 20.7003V24.5688H20.7231L22.2228 27.1685L20.6961 29.8138H24.588V33.6452L27.2079 32.1338L29.8379 33.6502V29.8104H33.723L32.1963 27.1668L33.6977 24.5671H29.8362V20.6986L27.2062 22.2066L24.5863 20.6986L24.588 20.7003ZM38.0417 40.693C38.1412 40.7502 38.2441 40.7941 38.3454 40.821C38.4398 40.8463 38.5326 40.8564 38.6203 40.8463C38.7486 40.8328 38.8396 40.7789 38.9004 40.698C38.9712 40.6037 39.0033 40.4739 39.0033 40.3341C39.0033 37.795 39.0033 35.2542 39.0033 32.7151H32.7513V37.6096L38.0451 40.6913L38.0417 40.693ZM18.4811 27.888C18.5485 27.7734 18.6565 27.6959 18.7763 27.6639C18.8961 27.6319 19.0277 27.647 19.1424 27.7127C19.1508 27.7178 19.1592 27.7228 19.1677 27.7279L16.7772 23.5797L12.2156 23.5865C12.224 23.5915 12.2341 23.5949 12.2409 23.6C12.3573 23.6657 12.4349 23.7735 12.467 23.8931C12.499 24.0128 12.4872 24.1442 12.4197 24.2604C12.4045 24.2874 12.3894 24.3127 12.3725 24.3379C11.3367 26.102 10.3801 27.7228 9.34096 29.4886C9.23131 29.6756 9.21444 29.7565 9.16214 29.9435C9.10479 30.1457 9.07948 30.3445 9.07948 30.5366C9.07948 30.7421 9.10647 30.9409 9.15877 31.133C9.21444 31.3352 9.2971 31.529 9.4017 31.7092L12.8111 37.6046L18.4794 27.888H18.4811ZM13.6934 38.0073C13.636 38.1067 13.5922 38.2095 13.5652 38.3106C13.5399 38.4049 13.5298 38.4976 13.5399 38.5852C13.5534 38.7132 13.6074 38.8042 13.6883 38.8649C13.7828 38.9356 13.9127 38.9677 14.0527 38.9677C16.595 38.9677 19.139 38.9677 21.6813 38.9677V32.7235H16.7806L13.6951 38.0106L13.6934 38.0073ZM26.5196 18.4662C26.6343 18.5336 26.7119 18.6414 26.7439 18.761C26.776 18.8806 26.7608 19.0121 26.695 19.1266C26.69 19.1351 26.6849 19.1435 26.6798 19.1519L30.8332 16.7644L30.8265 12.2086C30.8214 12.217 30.818 12.2271 30.813 12.2338C30.7472 12.3501 30.6392 12.4276 30.5194 12.4596C30.3996 12.4916 30.2681 12.4798 30.1517 12.4124C30.1247 12.3973 30.0994 12.3821 30.0741 12.3653C28.3078 11.3307 26.6849 10.3754 24.9169 9.33755C24.7297 9.22803 24.6487 9.21118 24.4614 9.15895C24.259 9.10166 24.0599 9.07639 23.8676 9.07639C23.6618 9.07639 23.4627 9.10335 23.2704 9.15558C23.068 9.21118 22.874 9.29374 22.6935 9.3982L16.7907 12.8033L26.5196 18.4645V18.4662ZM16.3875 13.6845C16.288 13.6272 16.1851 13.5834 16.0839 13.5565C15.9894 13.5312 15.8966 13.5211 15.8089 13.5312C15.6807 13.5447 15.5896 13.5986 15.5288 13.6795C15.458 13.7738 15.4259 13.9035 15.4259 14.0434C15.4259 16.5825 15.4259 19.1233 15.4259 21.6624H21.6779V16.7678L16.3841 13.6862L16.3875 13.6845ZM35.9431 26.4929C35.8756 26.6075 35.7676 26.685 35.6479 26.717C35.5281 26.749 35.3965 26.7338 35.2818 26.6681C35.2734 26.6631 35.2649 26.658 35.2565 26.6529L37.6469 30.8011L42.2086 30.7944C42.2001 30.7893 42.19 30.7859 42.1833 30.7809C42.0669 30.7152 41.9893 30.6073 41.9572 30.4877C41.9252 30.3681 41.937 30.2367 42.0044 30.1204C42.0196 30.0934 42.0348 30.0682 42.0517 30.0429C43.0875 28.2788 44.044 26.658 45.0832 24.8923C45.1928 24.7052 45.2097 24.6244 45.262 24.4373C45.3194 24.2352 45.3447 24.0363 45.3447 23.8443C45.3447 23.6387 45.3177 23.4399 45.2654 23.2478C45.2097 23.0456 45.1271 22.8519 45.0225 22.6716L41.6131 16.7762L35.9448 26.4929H35.9431ZM40.7308 16.3736C40.7881 16.2742 40.832 16.1714 40.859 16.0703C40.8843 15.9759 40.8944 15.8833 40.8843 15.7956C40.8708 15.6676 40.8168 15.5766 40.7358 15.516C40.6414 15.4452 40.5115 15.4132 40.3714 15.4132C37.8291 15.4132 35.2852 15.4132 32.7429 15.4132V21.6573H37.6436L40.7291 16.3702L40.7308 16.3736Z" fill="#006140"/>
</g>
<g clip-path="url(#clip1_7604_18558)">
<path d="M76.2479 40.7326C78.5895 40.7326 79.8508 39.2477 80.4759 37.8771L78.3263 36.7589C78.0082 37.6066 77.1802 38.3039 76.2479 38.3039C74.6631 38.3039 73.5445 36.9633 73.5445 35.226C73.5445 33.4886 74.6631 32.148 76.2479 32.148C77.1802 32.148 78.0082 32.8514 78.3263 33.693L80.4759 32.5748C79.8343 31.1741 78.584 29.7193 76.2479 29.7193C73.2703 29.7193 71 31.9376 71 35.22C71 38.5023 73.2703 40.7206 76.2479 40.7206V40.7326ZM90.5825 40.5402V29.9117H81.5562V40.5402H84.0568V32.2983H88.0819V40.5402H90.5825ZM99.4387 40.5402V38.1476H94.8324V36.3441H99.34V33.9515H94.8324V32.2923H99.4387V29.8997H92.3318V40.5282H99.4387V40.5402ZM108.278 42.5H110.796V38.1476H109.924V29.9057H107.423V38.1476H103.398V29.9057H100.897V40.5342H108.284V42.494L108.278 42.5ZM121.291 40.5402L117.628 29.9117H114.486L110.839 40.5402H113.674L114.152 39.0073H117.974L118.451 40.5402H121.286H121.291ZM117.294 36.6207H114.821L116.054 32.6229L117.288 36.6207H117.294ZM127.674 40.5402C129.577 40.5402 130.526 39.1996 130.526 37.6547C130.526 36.3141 129.714 35.232 128.678 35.0576C129.594 34.8352 130.334 33.9395 130.334 32.6169C130.334 31.2944 129.418 29.9057 127.499 29.9057H122.004V40.5342H127.674V40.5402ZM126.934 33.9876H124.505V32.2202H126.934C127.444 32.2202 127.79 32.5869 127.79 33.0979C127.79 33.6088 127.439 33.9876 126.934 33.9876ZM127.022 38.2258H124.505V36.3141H127.022C127.631 36.3141 127.982 36.7469 127.982 37.2699C127.982 37.841 127.62 38.2258 127.022 38.2258ZM136.383 40.5342V32.2923H139.086V29.8997H131.162V32.2923H133.882V40.5342H136.383ZM144.652 40.7266C147.619 40.7266 149.829 38.4662 149.829 35.226C149.829 31.9857 147.619 29.7253 144.652 29.7253C141.685 29.7253 139.465 31.9857 139.465 35.226C139.465 38.4662 141.691 40.7266 144.652 40.7266ZM144.652 38.3039C143.04 38.3039 142.004 36.9513 142.004 35.226C142.004 33.5006 143.034 32.148 144.652 32.148C146.27 32.148 147.284 33.4886 147.284 35.226C147.284 36.9633 146.253 38.3039 144.652 38.3039ZM159.76 40.5342L156.387 35.0697L159.541 29.9057H156.574L154.698 33.2361L152.796 29.9057H149.845L153.015 35.0877L149.626 40.5402H152.593L154.698 36.9693L156.804 40.5402H159.754L159.76 40.5342ZM164.745 40.7266C167.711 40.7266 169.921 38.4662 169.921 35.226C169.921 31.9857 167.711 29.7253 164.745 29.7253C161.778 29.7253 159.557 31.9857 159.557 35.226C159.557 38.4662 161.783 40.7266 164.745 40.7266ZM164.745 38.3039C163.132 38.3039 162.096 36.9513 162.096 35.226C162.096 33.5006 163.127 32.148 164.745 32.148C166.362 32.148 167.377 33.4886 167.377 35.226C167.377 36.9633 166.346 38.3039 164.745 38.3039ZM174.703 40.7266C177.132 40.7266 178.893 39.4341 178.893 37.5705C178.893 36.0375 177.642 35.1658 176.611 35.0516C177.758 34.8472 178.734 33.9034 178.734 32.659C178.734 30.9036 177.193 29.7434 174.72 29.7434C172.932 29.7434 171.49 30.4588 170.678 31.4627L171.884 33.182C172.57 32.5147 173.573 32.16 174.456 32.16C175.46 32.16 176.228 32.4606 176.228 33.1339C176.228 33.693 175.542 33.9635 174.511 33.9635H172.532V36.3682H174.511C175.904 36.3682 176.387 36.6567 176.387 37.2579C176.387 37.8591 175.761 38.2919 174.615 38.2919C173.771 38.2919 172.51 37.9252 171.808 37.1737L170.541 39.0373C171.298 39.9932 172.855 40.7086 174.698 40.7086L174.703 40.7266ZM182.715 40.5342L184.327 36.9633H185.605V40.5342H188.122V29.9057H183.269C181.119 29.9057 179.88 31.4687 179.88 33.4465C179.88 35.2981 180.911 36.284 181.826 36.6327L179.847 40.5402H182.709L182.715 40.5342ZM183.631 34.5707C182.978 34.5707 182.441 34.1739 182.441 33.4225C182.441 32.671 182.978 32.2923 183.631 32.2923H185.61V34.5707H183.631ZM192.279 40.5342L196.364 33.9695V40.5342H198.881V29.9057H196.293L192.366 36.1698V29.9057H189.866V40.5342H192.279ZM196.918 28.0541L195.958 27.1945C195.596 27.7836 195.042 28.1202 194.373 28.1202C193.704 28.1202 193.139 27.7355 192.772 27.1945L191.812 28.0541C192.41 28.9138 193.337 29.4548 194.373 29.4548C195.41 29.4548 196.336 28.9138 196.918 28.0541ZM205.379 40.7266C207.721 40.7266 208.982 39.2417 209.607 37.8711L207.458 36.7529C207.139 37.6006 206.311 38.2979 205.379 38.2979C203.794 38.2979 202.676 36.9573 202.676 35.22C202.676 33.4826 203.794 32.142 205.379 32.142C206.311 32.142 207.139 32.8454 207.458 33.687L209.607 32.5688C208.966 31.1681 207.715 29.7133 205.379 29.7133C202.401 29.7133 200.131 31.9316 200.131 35.2139C200.131 38.4963 202.401 40.7146 205.379 40.7146V40.7266ZM215.354 40.5342V32.2923H218.058V29.8997H210.134V32.2923H212.854V40.5342H215.354ZM224.918 40.5342C226.821 40.5342 227.769 39.1936 227.769 37.6486C227.769 36.3081 226.958 35.226 225.921 35.0516C226.837 34.8292 227.577 33.9335 227.577 32.6109C227.577 31.2884 226.662 29.8997 224.742 29.8997H219.248V40.5282H224.918V40.5342ZM224.177 33.9816H221.748V32.2141H224.177C224.687 32.2141 225.033 32.5809 225.033 33.0918C225.033 33.6028 224.682 33.9816 224.177 33.9816ZM224.265 38.2197H221.748V36.3081H224.265C224.874 36.3081 225.225 36.7409 225.225 37.2639C225.225 37.835 224.863 38.2197 224.265 38.2197ZM233.829 40.7206C236.796 40.7206 239.005 38.4602 239.005 35.22C239.005 31.9797 236.796 29.7193 233.829 29.7193C230.862 29.7193 228.641 31.9797 228.641 35.22C228.641 38.4602 230.868 40.7206 233.829 40.7206ZM233.829 38.2979C232.217 38.2979 231.18 36.9453 231.18 35.22C231.18 33.4946 232.211 32.142 233.829 32.142C235.447 32.142 236.461 33.4826 236.461 35.22C236.461 36.9573 235.43 38.2979 233.829 38.2979Z" fill="#006140"/>
<path d="M180.894 24.5553C183.318 24.5553 185.122 22.7038 185.122 20.0647C185.122 17.4256 183.318 15.574 180.894 15.574C178.47 15.574 176.655 17.4256 176.655 20.0647C176.655 22.7038 178.47 24.5553 180.894 24.5553ZM180.894 22.5775C179.578 22.5775 178.734 21.4714 178.734 20.0647C178.734 18.658 179.578 17.5518 180.894 17.5518C182.21 17.5518 183.044 18.6459 183.044 20.0647C183.044 21.4834 182.199 22.5775 180.894 22.5775ZM193.534 24.399V15.7123H186.159V24.399H188.204V17.666H191.494V24.399H193.54H193.534ZM200.767 24.399V22.4453H197V20.9724H200.685V19.0187H197V17.666H200.767V15.7123H194.96V24.399H200.767ZM203.997 24.399V21.4834H205.922C207.704 21.4834 208.68 20.1669 208.68 18.6039C208.68 17.0408 207.704 15.7123 205.922 15.7123H201.957V24.399H204.003H203.997ZM205.648 19.5296H203.997V17.666H205.648C206.196 17.666 206.597 18.0027 206.597 18.6039C206.597 19.205 206.191 19.5296 205.648 19.5296ZM216.434 24.399L213.44 15.7123H210.874L207.891 24.399H210.205L210.6 23.1486H213.725L214.115 24.399H216.429H216.434ZM213.166 21.1949H211.148L212.157 17.9245L213.166 21.1949ZM220.092 24.399V17.666H222.302V15.7123H215.826V17.666H218.047V24.399H220.092ZM226.853 24.5553C229.277 24.5553 231.081 22.7038 231.081 20.0647C231.081 17.4256 229.277 15.574 226.853 15.574C224.43 15.574 222.615 17.4256 222.615 20.0647C222.615 22.7038 224.43 24.5553 226.853 24.5553ZM226.853 22.5775C225.537 22.5775 224.693 21.4714 224.693 20.0647C224.693 18.658 225.537 17.5518 226.853 17.5518C228.17 17.5518 229.003 18.6459 229.003 20.0647C229.003 21.4834 228.159 22.5775 226.853 22.5775ZM234.158 24.399V21.4834H236.083C237.865 21.4834 238.841 20.1669 238.841 18.6039C238.841 17.0408 237.865 15.7123 236.083 15.7123H232.118V24.399H234.163H234.158ZM235.808 19.5296H234.158V17.666H235.808C236.357 17.666 236.757 18.0027 236.757 18.6039C236.757 19.205 236.351 19.5296 235.808 19.5296Z" fill="#006140"/>
<path d="M73.5553 24.399V21.4834H75.4801C77.2623 21.4834 78.2385 20.1669 78.2385 18.6039C78.2385 17.0408 77.2623 15.7123 75.4801 15.7123H71.5154V24.399H73.5608H73.5553ZM75.2059 19.5296H73.5553V17.666H75.2059C75.7543 17.666 76.1546 18.0027 76.1546 18.6039C76.1546 19.205 75.7488 19.5296 75.2059 19.5296ZM84.956 24.399V22.4453H81.1887V20.9724H84.8738V19.0187H81.1887V17.666H84.956V15.7123H79.1488V24.399H84.956ZM88.186 24.399V17.666H91.9533V15.7123H86.146V24.399H88.1914H88.186ZM95.0297 24.399L98.3693 19.0367V24.399H100.426V15.7123H98.309L95.101 20.8282V15.7123H93.0555V24.399H95.0297ZM105.685 24.5553C108.108 24.5553 109.913 22.7038 109.913 20.0647C109.913 17.4256 108.108 15.574 105.685 15.574C103.261 15.574 101.446 17.4256 101.446 20.0647C101.446 22.7038 103.261 24.5553 105.685 24.5553ZM105.685 22.5775C104.368 22.5775 103.524 21.4714 103.524 20.0647C103.524 18.658 104.368 17.5518 105.685 17.5518C107.001 17.5518 107.834 18.6459 107.834 20.0647C107.834 21.4834 106.99 22.5775 105.685 22.5775ZM118.325 24.399V15.7123H116.279V18.9706H112.989V15.7123H110.944V24.399H112.989V20.9243H116.279V24.399H118.325ZM127.45 24.399L124.455 15.7123H121.889L118.906 24.399H121.22L121.615 23.1486H124.741L125.13 24.399H127.444H127.45ZM124.181 21.1949H122.163L123.172 17.9245L124.181 21.1949ZM127.592 24.5553C129.325 24.5553 130.68 23.7979 131.063 20.2811L131.349 17.666H133.367V24.399H135.412V15.7123H129.506L129.029 20.1128C128.804 22.0906 128.327 22.5715 127.592 22.5715V24.5493V24.5553ZM136.832 15.7123V24.399H140.802C142.585 24.399 143.561 23.0825 143.561 21.5075C143.561 19.9324 142.585 18.6279 140.802 18.6279H138.878V15.7123H136.832ZM140.528 20.5817C141.077 20.5817 141.477 20.9183 141.477 21.5075C141.477 22.0966 141.071 22.4453 140.528 22.4453H138.878V20.5817H140.528ZM151.847 24.399V15.7123H149.801V18.9706H146.511V15.7123H144.466V24.399H146.511V20.9243H149.801V24.399H151.847ZM153.273 15.7123V24.399H157.237C159.019 24.399 159.996 23.0825 159.996 21.5075C159.996 19.9324 159.019 18.6279 157.237 18.6279H155.312V15.7123H153.267H153.273ZM156.969 20.5817C157.517 20.5817 157.917 20.9183 157.917 21.5075C157.917 22.0966 157.511 22.4453 156.969 22.4453H155.318V20.5817H156.969ZM162.622 24.399V15.7123H160.577V24.399H162.622ZM166.022 24.399L169.362 19.0367V24.399H171.418V15.7123H169.302L166.094 20.8282V15.7123H164.048V24.399H166.022ZM169.812 14.2034L169.027 13.5C168.731 13.9809 168.282 14.2575 167.733 14.2575C167.185 14.2575 166.724 13.9449 166.428 13.5L165.644 14.2034C166.132 14.9067 166.889 15.3516 167.733 15.3516C168.578 15.3516 169.334 14.9067 169.812 14.2034Z" fill="#006140"/>
</g>
<defs>
<clipPath id="clip0_7604_18558">
<rect width="55" height="56" fill="white"/>
</clipPath>
<clipPath id="clip1_7604_18558">
<rect width="168" height="29" fill="white" transform="translate(71 13.5)"/>
</clipPath>
</defs>
</svg>
