<svg width="44" height="44" viewBox="0 0 44 44" fill="none" xmlns="http://www.w3.org/2000/svg">
<circle cx="22" cy="22" r="22" fill="#D4E7D4"/>
<path d="M15.4524 34.496L8.8881 38.0766C8.5029 38.2867 8.15671 38.5449 7.83459 38.8263C11.6618 42.0532 16.6022 44 22.0001 44C27.3581 44 32.267 42.0823 36.0834 38.8993C35.7314 38.6021 35.3495 38.3348 34.9261 38.124L27.8969 34.6098C26.9887 34.1556 26.415 33.2275 26.415 32.2122V29.4543C26.6126 29.2293 26.8384 28.9404 27.08 28.5992C28.0381 27.246 28.7628 25.7575 29.2651 24.1959C30.1667 23.9178 30.8308 23.0851 30.8308 22.0955V19.1516C30.8308 18.5041 30.5427 17.9255 30.0953 17.5203V13.2648C30.0953 13.2648 30.9695 6.64236 22.0009 6.64236C13.0324 6.64236 13.9066 13.2648 13.9066 13.2648V17.5203C13.4583 17.9255 13.171 18.5041 13.171 19.1516V22.0955C13.171 22.8709 13.5787 23.5533 14.1889 23.9476C14.9244 27.1497 16.8504 29.4543 16.8504 29.4543V32.1441C16.8496 33.1237 16.3133 34.0261 15.4524 34.496Z" fill="white"/>
</svg>
